{
	"patcher" : 	{
		"fileversion" : 1,
		"appversion" : 		{
			"major" : 8,
			"minor" : 0,
			"revision" : 5,
			"architecture" : "x64",
			"modernui" : 1
		}
,
		"classnamespace" : "box",
		"rect" : [ 100.0, 100.0, 749.0, 482.0 ],
		"bglocked" : 0,
		"openinpresentation" : 0,
		"default_fontsize" : 12.0,
		"default_fontface" : 0,
		"default_fontname" : "Arial",
		"gridonopen" : 1,
		"gridsize" : [ 5.0, 5.0 ],
		"gridsnaponopen" : 1,
		"objectsnaponopen" : 1,
		"statusbarvisible" : 2,
		"toolbarvisible" : 1,
		"lefttoolbarpinned" : 0,
		"toptoolbarpinned" : 0,
		"righttoolbarpinned" : 0,
		"bottomtoolbarpinned" : 0,
		"toolbars_unpinned_last_save" : 0,
		"tallnewobj" : 0,
		"boxanimatetime" : 200,
		"enablehscroll" : 1,
		"enablevscroll" : 1,
		"devicewidth" : 0.0,
		"description" : "",
		"digest" : "",
		"tags" : "",
		"style" : "",
		"subpatcher_template" : "",
		"showrootpatcherontab" : 0,
		"showontab" : 0,
		"boxes" : [ 			{
				"box" : 				{
					"fontname" : "Arial",
					"fontsize" : 12.0,
					"id" : "obj-5",
					"maxclass" : "newobj",
					"numinlets" : 0,
					"numoutlets" : 0,
					"patcher" : 					{
						"fileversion" : 1,
						"appversion" : 						{
							"major" : 8,
							"minor" : 0,
							"revision" : 5,
							"architecture" : "x64",
							"modernui" : 1
						}
,
						"classnamespace" : "box",
						"rect" : [ 0.0, 26.0, 749.0, 456.0 ],
						"bglocked" : 0,
						"openinpresentation" : 0,
						"default_fontsize" : 13.0,
						"default_fontface" : 0,
						"default_fontname" : "Arial",
						"gridonopen" : 1,
						"gridsize" : [ 5.0, 5.0 ],
						"gridsnaponopen" : 1,
						"objectsnaponopen" : 1,
						"statusbarvisible" : 2,
						"toolbarvisible" : 1,
						"lefttoolbarpinned" : 0,
						"toptoolbarpinned" : 0,
						"righttoolbarpinned" : 0,
						"bottomtoolbarpinned" : 0,
						"toolbars_unpinned_last_save" : 0,
						"tallnewobj" : 0,
						"boxanimatetime" : 200,
						"enablehscroll" : 1,
						"enablevscroll" : 1,
						"devicewidth" : 0.0,
						"description" : "",
						"digest" : "",
						"tags" : "",
						"style" : "",
						"subpatcher_template" : "",
						"showontab" : 1,
						"boxes" : [ 							{
								"box" : 								{
									"fontname" : "Arial",
									"fontsize" : 13.0,
									"id" : "obj-4",
									"maxclass" : "comment",
									"numinlets" : 1,
									"numoutlets" : 0,
									"patching_rect" : [ 418.5, 14.0, 98.0, 21.0 ],
									"text" : "A stereo buffer:",
									"textcolor" : [ 0.501961, 0.501961, 0.501961, 1.0 ]
								}

							}
, 							{
								"box" : 								{
									"bubble" : 1,
									"fontname" : "Arial",
									"fontsize" : 13.0,
									"id" : "obj-14",
									"linecount" : 3,
									"maxclass" : "comment",
									"numinlets" : 1,
									"numoutlets" : 0,
									"patching_rect" : [ 408.5, 232.5, 241.0, 54.0 ],
									"text" : "Automatically reduces the gain of multichannel files in order to take precautions against possible clipping"
								}

							}
, 							{
								"box" : 								{
									"attr" : "compensate",
									"id" : "obj-12",
									"maxclass" : "attrui",
									"numinlets" : 1,
									"numoutlets" : 1,
									"outlettype" : [ "" ],
									"patching_rect" : [ 251.0, 248.0, 150.0, 23.0 ]
								}

							}
, 							{
								"box" : 								{
									"bubble" : 1,
									"fontname" : "Arial",
									"fontsize" : 13.0,
									"id" : "obj-9",
									"linecount" : 3,
									"maxclass" : "comment",
									"numinlets" : 1,
									"numoutlets" : 0,
									"patching_rect" : [ 479.0, 177.0, 212.0, 54.0 ],
									"text" : "Sets the pan mode to \"circular\", meaning that the loudspeakers are meant to cycle"
								}

							}
, 							{
								"box" : 								{
									"attr" : "panmode",
									"id" : "obj-8",
									"maxclass" : "attrui",
									"numinlets" : 1,
									"numoutlets" : 1,
									"outlettype" : [ "" ],
									"patching_rect" : [ 251.0, 196.0, 224.0, 23.0 ]
								}

							}
, 							{
								"box" : 								{
									"bubble" : 1,
									"fontname" : "Arial",
									"fontsize" : 13.0,
									"id" : "obj-13",
									"linecount" : 4,
									"maxclass" : "comment",
									"numinlets" : 1,
									"numoutlets" : 0,
									"patching_rect" : [ 412.5, 104.0, 284.0, 69.0 ],
									"text" : "Given that our source was stereo, this handles the stereo spread in the multichannel mix \n(spread = 0 -> downmix to mono)"
								}

							}
, 							{
								"box" : 								{
									"attr" : "spread",
									"id" : "obj-6",
									"maxclass" : "attrui",
									"numinlets" : 1,
									"numoutlets" : 1,
									"outlettype" : [ "" ],
									"patching_rect" : [ 251.0, 127.0, 150.0, 23.0 ]
								}

							}
, 							{
								"box" : 								{
									"buffername" : "earsBufAnton",
									"id" : "obj-23",
									"maxclass" : "waveform~",
									"numinlets" : 5,
									"numoutlets" : 6,
									"outlettype" : [ "float", "float", "float", "float", "list", "" ],
									"patching_rect" : [ 521.0, 10.0, 183.5, 40.0 ]
								}

							}
, 							{
								"box" : 								{
									"id" : "obj-3",
									"maxclass" : "newobj",
									"numinlets" : 1,
									"numoutlets" : 2,
									"outlettype" : [ "float", "bang" ],
									"patching_rect" : [ 521.0, 56.0, 170.0, 23.0 ],
									"text" : "buffer~ earsBufAnton anton"
								}

							}
, 							{
								"box" : 								{
									"fontname" : "Arial",
									"fontsize" : 13.0,
									"id" : "obj-1",
									"linecount" : 2,
									"maxclass" : "comment",
									"numinlets" : 1,
									"numoutlets" : 0,
									"patching_rect" : [ 10.0, 73.0, 411.0, 36.0 ],
									"text" : "ears.pan works even if the source buffer has more than one channel, and you can set the amount of multichannel spread:",
									"textcolor" : [ 0.501961, 0.501961, 0.501961, 1.0 ]
								}

							}
, 							{
								"box" : 								{
									"buffername" : "u188007359",
									"chanoffset" : 8,
									"id" : "obj-37",
									"labels" : 0,
									"maxclass" : "waveform~",
									"numinlets" : 5,
									"numoutlets" : 6,
									"outlettype" : [ "float", "float", "float", "float", "list", "" ],
									"patching_rect" : [ 14.0, 434.046111999999994, 216.0, 10.0 ],
									"ruler" : 0
								}

							}
, 							{
								"box" : 								{
									"buffername" : "u188007359",
									"chanoffset" : 7,
									"id" : "obj-38",
									"labels" : 0,
									"maxclass" : "waveform~",
									"numinlets" : 5,
									"numoutlets" : 6,
									"outlettype" : [ "float", "float", "float", "float", "list", "" ],
									"patching_rect" : [ 14.0, 423.241698999999983, 216.0, 10.0 ],
									"ruler" : 0
								}

							}
, 							{
								"box" : 								{
									"buffername" : "u188007359",
									"chanoffset" : 6,
									"id" : "obj-39",
									"labels" : 0,
									"maxclass" : "waveform~",
									"numinlets" : 5,
									"numoutlets" : 6,
									"outlettype" : [ "float", "float", "float", "float", "list", "" ],
									"patching_rect" : [ 14.0, 412.437255999999991, 216.0, 10.0 ],
									"ruler" : 0
								}

							}
, 							{
								"box" : 								{
									"buffername" : "u188007359",
									"chanoffset" : 5,
									"id" : "obj-35",
									"labels" : 0,
									"maxclass" : "waveform~",
									"numinlets" : 5,
									"numoutlets" : 6,
									"outlettype" : [ "float", "float", "float", "float", "list", "" ],
									"patching_rect" : [ 14.0, 400.63284299999998, 216.0, 10.0 ],
									"ruler" : 0
								}

							}
, 							{
								"box" : 								{
									"buffername" : "u188007359",
									"chanoffset" : 4,
									"id" : "obj-36",
									"labels" : 0,
									"maxclass" : "waveform~",
									"numinlets" : 5,
									"numoutlets" : 6,
									"outlettype" : [ "float", "float", "float", "float", "list", "" ],
									"patching_rect" : [ 14.0, 389.828399999999988, 216.0, 10.0 ],
									"ruler" : 0
								}

							}
, 							{
								"box" : 								{
									"buffername" : "u188007359",
									"chanoffset" : 3,
									"id" : "obj-33",
									"labels" : 0,
									"maxclass" : "waveform~",
									"numinlets" : 5,
									"numoutlets" : 6,
									"outlettype" : [ "float", "float", "float", "float", "list", "" ],
									"patching_rect" : [ 14.0, 379.023986999999977, 216.0, 10.0 ],
									"ruler" : 0
								}

							}
, 							{
								"box" : 								{
									"id" : "obj-10",
									"maxclass" : "message",
									"numinlets" : 2,
									"numoutlets" : 1,
									"outlettype" : [ "" ],
									"patching_rect" : [ 34.0, 170.0, 76.0, 23.0 ],
									"text" : "[[0 0] [1 1]]"
								}

							}
, 							{
								"box" : 								{
									"buffername" : "u188007359",
									"chanoffset" : 2,
									"id" : "obj-20",
									"labels" : 0,
									"maxclass" : "waveform~",
									"numinlets" : 5,
									"numoutlets" : 6,
									"outlettype" : [ "float", "float", "float", "float", "list", "" ],
									"patching_rect" : [ 14.0, 368.219542999999987, 216.0, 10.0 ],
									"ruler" : 0
								}

							}
, 							{
								"box" : 								{
									"id" : "obj-21",
									"maxclass" : "message",
									"numinlets" : 2,
									"numoutlets" : 1,
									"outlettype" : [ "" ],
									"patching_rect" : [ 14.0, 319.0, 50.0, 23.0 ],
									"text" : "set $1"
								}

							}
, 							{
								"box" : 								{
									"buffername" : "u188007359",
									"id" : "obj-22",
									"maxclass" : "waveform~",
									"numinlets" : 5,
									"numoutlets" : 6,
									"outlettype" : [ "float", "float", "float", "float", "list", "" ],
									"patching_rect" : [ 14.0, 351.0, 216.0, 16.206641999999999 ]
								}

							}
, 							{
								"box" : 								{
									"id" : "obj-26",
									"maxclass" : "message",
									"numinlets" : 2,
									"numoutlets" : 1,
									"outlettype" : [ "" ],
									"patching_rect" : [ 14.0, 133.567626999999987, 89.0, 23.0 ],
									"text" : "earsBufAnton"
								}

							}
, 							{
								"box" : 								{
									"fontname" : "Arial",
									"fontsize" : 13.0,
									"id" : "obj-28",
									"maxclass" : "newobj",
									"numinlets" : 2,
									"numoutlets" : 1,
									"outlettype" : [ "" ],
									"patching_rect" : [ 14.0, 284.0, 261.0, 23.0 ],
									"text" : "ears.pan~ 8 @panmode circular @spread 0"
								}

							}
, 							{
								"box" : 								{
									"border" : 0,
									"filename" : "helpname.js",
									"id" : "obj-2",
									"ignoreclick" : 1,
									"jsarguments" : [ "ears.pan~" ],
									"maxclass" : "jsui",
									"numinlets" : 1,
									"numoutlets" : 1,
									"outlettype" : [ "" ],
									"parameter_enable" : 0,
									"patching_rect" : [ 10.0, 10.0, 209.167999267578125, 57.599853515625 ]
								}

							}
 ],
						"lines" : [ 							{
								"patchline" : 								{
									"destination" : [ "obj-28", 1 ],
									"source" : [ "obj-10", 0 ]
								}

							}
, 							{
								"patchline" : 								{
									"destination" : [ "obj-28", 0 ],
									"source" : [ "obj-12", 0 ]
								}

							}
, 							{
								"patchline" : 								{
									"destination" : [ "obj-20", 0 ],
									"midpoints" : [ 23.5, 392.0 ],
									"order" : 6,
									"source" : [ "obj-21", 0 ]
								}

							}
, 							{
								"patchline" : 								{
									"destination" : [ "obj-22", 0 ],
									"order" : 7,
									"source" : [ "obj-21", 0 ]
								}

							}
, 							{
								"patchline" : 								{
									"destination" : [ "obj-33", 0 ],
									"order" : 5,
									"source" : [ "obj-21", 0 ]
								}

							}
, 							{
								"patchline" : 								{
									"destination" : [ "obj-35", 0 ],
									"order" : 3,
									"source" : [ "obj-21", 0 ]
								}

							}
, 							{
								"patchline" : 								{
									"destination" : [ "obj-36", 0 ],
									"order" : 4,
									"source" : [ "obj-21", 0 ]
								}

							}
, 							{
								"patchline" : 								{
									"destination" : [ "obj-37", 0 ],
									"order" : 0,
									"source" : [ "obj-21", 0 ]
								}

							}
, 							{
								"patchline" : 								{
									"destination" : [ "obj-38", 0 ],
									"order" : 1,
									"source" : [ "obj-21", 0 ]
								}

							}
, 							{
								"patchline" : 								{
									"destination" : [ "obj-39", 0 ],
									"order" : 2,
									"source" : [ "obj-21", 0 ]
								}

							}
, 							{
								"patchline" : 								{
									"destination" : [ "obj-10", 0 ],
									"order" : 0,
									"source" : [ "obj-26", 0 ]
								}

							}
, 							{
								"patchline" : 								{
									"destination" : [ "obj-28", 0 ],
									"order" : 1,
									"source" : [ "obj-26", 0 ]
								}

							}
, 							{
								"patchline" : 								{
									"destination" : [ "obj-21", 0 ],
									"source" : [ "obj-28", 0 ]
								}

							}
, 							{
								"patchline" : 								{
									"destination" : [ "obj-28", 0 ],
									"source" : [ "obj-6", 0 ]
								}

							}
, 							{
								"patchline" : 								{
									"destination" : [ "obj-28", 0 ],
									"source" : [ "obj-8", 0 ]
								}

							}
 ]
					}
,
					"patching_rect" : [ 42.0, 151.0, 142.0, 22.0 ],
					"saved_object_attributes" : 					{
						"description" : "",
						"digest" : "",
						"fontsize" : 13.0,
						"globalpatchername" : "",
						"tags" : ""
					}
,
					"text" : "p \"multichannel panning\"",
					"varname" : "basic_tab[2]"
				}

			}
, 			{
				"box" : 				{
					"fontname" : "Arial",
					"fontsize" : 12.0,
					"id" : "obj-3",
					"maxclass" : "newobj",
					"numinlets" : 0,
					"numoutlets" : 0,
					"patcher" : 					{
						"fileversion" : 1,
						"appversion" : 						{
							"major" : 8,
							"minor" : 0,
							"revision" : 5,
							"architecture" : "x64",
							"modernui" : 1
						}
,
						"classnamespace" : "box",
						"rect" : [ 0.0, 26.0, 749.0, 456.0 ],
						"bglocked" : 0,
						"openinpresentation" : 0,
						"default_fontsize" : 13.0,
						"default_fontface" : 0,
						"default_fontname" : "Arial",
						"gridonopen" : 1,
						"gridsize" : [ 5.0, 5.0 ],
						"gridsnaponopen" : 1,
						"objectsnaponopen" : 1,
						"statusbarvisible" : 2,
						"toolbarvisible" : 1,
						"lefttoolbarpinned" : 0,
						"toptoolbarpinned" : 0,
						"righttoolbarpinned" : 0,
						"bottomtoolbarpinned" : 0,
						"toolbars_unpinned_last_save" : 0,
						"tallnewobj" : 0,
						"boxanimatetime" : 200,
						"enablehscroll" : 1,
						"enablevscroll" : 1,
						"devicewidth" : 0.0,
						"description" : "",
						"digest" : "",
						"tags" : "",
						"style" : "",
						"subpatcher_template" : "",
						"showontab" : 1,
						"boxes" : [ 							{
								"box" : 								{
									"border" : 0,
									"filename" : "helpargs.js",
									"id" : "obj-1",
									"ignoreclick" : 1,
									"jsarguments" : [ "ears.pan~" ],
									"maxclass" : "jsui",
									"numinlets" : 1,
									"numoutlets" : 1,
									"outlettype" : [ "" ],
									"parameter_enable" : 0,
									"patching_rect" : [ 201.0, 228.0, 195.22149658203125, 69.0 ]
								}

							}
, 							{
								"box" : 								{
									"buffername" : "u606007391",
									"chanoffset" : 8,
									"id" : "obj-37",
									"labels" : 0,
									"maxclass" : "waveform~",
									"numinlets" : 5,
									"numoutlets" : 6,
									"outlettype" : [ "float", "float", "float", "float", "list", "" ],
									"patching_rect" : [ 405.0, 367.5, 216.0, 14.0 ],
									"ruler" : 0
								}

							}
, 							{
								"box" : 								{
									"buffername" : "u606007391",
									"chanoffset" : 7,
									"id" : "obj-38",
									"labels" : 0,
									"maxclass" : "waveform~",
									"numinlets" : 5,
									"numoutlets" : 6,
									"outlettype" : [ "float", "float", "float", "float", "list", "" ],
									"patching_rect" : [ 405.0, 351.5, 216.0, 14.0 ],
									"ruler" : 0
								}

							}
, 							{
								"box" : 								{
									"buffername" : "u606007391",
									"chanoffset" : 6,
									"id" : "obj-39",
									"labels" : 0,
									"maxclass" : "waveform~",
									"numinlets" : 5,
									"numoutlets" : 6,
									"outlettype" : [ "float", "float", "float", "float", "list", "" ],
									"patching_rect" : [ 405.0, 335.5, 216.0, 14.0 ],
									"ruler" : 0
								}

							}
, 							{
								"box" : 								{
									"buffername" : "u606007391",
									"chanoffset" : 5,
									"id" : "obj-35",
									"labels" : 0,
									"maxclass" : "waveform~",
									"numinlets" : 5,
									"numoutlets" : 6,
									"outlettype" : [ "float", "float", "float", "float", "list", "" ],
									"patching_rect" : [ 405.0, 319.5, 216.0, 14.0 ],
									"ruler" : 0
								}

							}
, 							{
								"box" : 								{
									"buffername" : "u606007391",
									"chanoffset" : 4,
									"id" : "obj-36",
									"labels" : 0,
									"maxclass" : "waveform~",
									"numinlets" : 5,
									"numoutlets" : 6,
									"outlettype" : [ "float", "float", "float", "float", "list", "" ],
									"patching_rect" : [ 405.0, 303.5, 216.0, 14.0 ],
									"ruler" : 0
								}

							}
, 							{
								"box" : 								{
									"buffername" : "u606007391",
									"chanoffset" : 3,
									"id" : "obj-33",
									"labels" : 0,
									"maxclass" : "waveform~",
									"numinlets" : 5,
									"numoutlets" : 6,
									"outlettype" : [ "float", "float", "float", "float", "list", "" ],
									"patching_rect" : [ 405.0, 287.5, 216.0, 14.0 ],
									"ruler" : 0
								}

							}
, 							{
								"box" : 								{
									"bubble" : 1,
									"fontname" : "Arial",
									"fontsize" : 13.0,
									"id" : "obj-25",
									"linecount" : 4,
									"maxclass" : "comment",
									"numinlets" : 1,
									"numoutlets" : 0,
									"patching_rect" : [ 519.0, 67.0, 204.0, 69.0 ],
									"text" : "Function syntax: each couple is a X, Y pair, where X is between 0 and 1, and Y is within the chosen range"
								}

							}
, 							{
								"box" : 								{
									"bubble" : 1,
									"fontname" : "Arial",
									"fontsize" : 13.0,
									"id" : "obj-24",
									"maxclass" : "comment",
									"numinlets" : 1,
									"numoutlets" : 0,
									"patching_rect" : [ 243.0, 187.0, 98.0, 25.0 ],
									"text" : "pan position"
								}

							}
, 							{
								"box" : 								{
									"format" : 6,
									"id" : "obj-23",
									"maxclass" : "flonum",
									"numinlets" : 1,
									"numoutlets" : 2,
									"outlettype" : [ "", "bang" ],
									"parameter_enable" : 0,
									"patching_rect" : [ 185.0, 187.0, 50.0, 23.0 ]
								}

							}
, 							{
								"box" : 								{
									"bubble" : 1,
									"fontname" : "Arial",
									"fontsize" : 13.0,
									"id" : "obj-16",
									"linecount" : 3,
									"maxclass" : "comment",
									"numinlets" : 1,
									"numoutlets" : 0,
									"patching_rect" : [ 252.0, 119.5, 148.0, 54.0 ],
									"text" : "...this only works when the rangetype is \"custom\""
								}

							}
, 							{
								"box" : 								{
									"attr" : "range",
									"id" : "obj-15",
									"maxclass" : "attrui",
									"numinlets" : 1,
									"numoutlets" : 1,
									"outlettype" : [ "" ],
									"patching_rect" : [ 37.5, 135.0, 207.0, 23.0 ]
								}

							}
, 							{
								"box" : 								{
									"bubble" : 1,
									"fontname" : "Arial",
									"fontsize" : 13.0,
									"id" : "obj-13",
									"maxclass" : "comment",
									"numinlets" : 1,
									"numoutlets" : 0,
									"patching_rect" : [ 267.0, 90.0, 137.0, 25.0 ],
									"text" : "Choose range type"
								}

							}
, 							{
								"box" : 								{
									"id" : "obj-10",
									"maxclass" : "message",
									"numinlets" : 2,
									"numoutlets" : 1,
									"outlettype" : [ "" ],
									"patching_rect" : [ 432.0, 90.0, 72.0, 23.0 ],
									"text" : "[[0 0] [1 8]]"
								}

							}
, 							{
								"box" : 								{
									"attr" : "rangetype",
									"id" : "obj-7",
									"maxclass" : "attrui",
									"numinlets" : 1,
									"numoutlets" : 1,
									"outlettype" : [ "" ],
									"patching_rect" : [ 421.0, 139.0, 314.0, 23.0 ]
								}

							}
, 							{
								"box" : 								{
									"attr" : "rangetype",
									"id" : "obj-3",
									"maxclass" : "attrui",
									"numinlets" : 1,
									"numoutlets" : 1,
									"outlettype" : [ "" ],
									"patching_rect" : [ 17.0, 90.0, 248.0, 23.0 ]
								}

							}
, 							{
								"box" : 								{
									"fontname" : "Arial",
									"fontsize" : 13.0,
									"id" : "obj-18",
									"linecount" : 4,
									"maxclass" : "comment",
									"numinlets" : 1,
									"numoutlets" : 0,
									"patching_rect" : [ 623.0, 246.0, 123.0, 65.0 ],
									"text" : "Output buffer has 2 channels and the original sound is panned at 0.3",
									"textcolor" : [ 0.501961, 0.501961, 0.501961, 1.0 ]
								}

							}
, 							{
								"box" : 								{
									"buffername" : "u606007391",
									"chanoffset" : 2,
									"id" : "obj-20",
									"labels" : 0,
									"maxclass" : "waveform~",
									"numinlets" : 5,
									"numoutlets" : 6,
									"outlettype" : [ "float", "float", "float", "float", "list", "" ],
									"patching_rect" : [ 405.0, 271.5, 216.0, 14.0 ],
									"ruler" : 0
								}

							}
, 							{
								"box" : 								{
									"id" : "obj-21",
									"maxclass" : "message",
									"numinlets" : 2,
									"numoutlets" : 1,
									"outlettype" : [ "" ],
									"patching_rect" : [ 405.0, 212.0, 50.0, 23.0 ],
									"text" : "set $1"
								}

							}
, 							{
								"box" : 								{
									"buffername" : "u606007391",
									"id" : "obj-22",
									"maxclass" : "waveform~",
									"numinlets" : 5,
									"numoutlets" : 6,
									"outlettype" : [ "float", "float", "float", "float", "list", "" ],
									"patching_rect" : [ 405.0, 246.0, 216.0, 24.0 ]
								}

							}
, 							{
								"box" : 								{
									"id" : "obj-26",
									"maxclass" : "message",
									"numinlets" : 2,
									"numoutlets" : 1,
									"outlettype" : [ "" ],
									"patching_rect" : [ 405.0, 44.567627000000002, 112.0, 23.0 ],
									"text" : "earsBufCherokee"
								}

							}
, 							{
								"box" : 								{
									"fontname" : "Arial",
									"fontsize" : 13.0,
									"id" : "obj-28",
									"maxclass" : "newobj",
									"numinlets" : 2,
									"numoutlets" : 1,
									"outlettype" : [ "" ],
									"patching_rect" : [ 405.0, 176.0, 163.0, 23.0 ],
									"text" : "ears.pan~ 8 @rangetype 3"
								}

							}
, 							{
								"box" : 								{
									"fontname" : "Arial",
									"fontsize" : 13.0,
									"id" : "obj-17",
									"linecount" : 4,
									"maxclass" : "comment",
									"numinlets" : 1,
									"numoutlets" : 0,
									"patching_rect" : [ 235.0, 323.0, 128.0, 65.0 ],
									"text" : "Output buffer has 2 channels and the original sound is panned at 0.3",
									"textcolor" : [ 0.501961, 0.501961, 0.501961, 1.0 ]
								}

							}
, 							{
								"box" : 								{
									"buffername" : "u831007397",
									"chanoffset" : 2,
									"id" : "obj-12",
									"maxclass" : "waveform~",
									"numinlets" : 5,
									"numoutlets" : 6,
									"outlettype" : [ "float", "float", "float", "float", "list", "" ],
									"patching_rect" : [ 17.0, 358.0, 216.0, 33.0 ]
								}

							}
, 							{
								"box" : 								{
									"id" : "obj-11",
									"maxclass" : "message",
									"numinlets" : 2,
									"numoutlets" : 1,
									"outlettype" : [ "" ],
									"patching_rect" : [ 17.0, 264.0, 50.0, 23.0 ],
									"text" : "set $1"
								}

							}
, 							{
								"box" : 								{
									"buffername" : "u831007397",
									"id" : "obj-9",
									"maxclass" : "waveform~",
									"numinlets" : 5,
									"numoutlets" : 6,
									"outlettype" : [ "float", "float", "float", "float", "list", "" ],
									"patching_rect" : [ 17.0, 298.0, 216.0, 33.0 ]
								}

							}
, 							{
								"box" : 								{
									"id" : "obj-4",
									"maxclass" : "message",
									"numinlets" : 2,
									"numoutlets" : 1,
									"outlettype" : [ "" ],
									"patching_rect" : [ 48.0, 187.0, 112.0, 23.0 ],
									"text" : "earsBufCherokee"
								}

							}
, 							{
								"box" : 								{
									"fontname" : "Arial",
									"fontsize" : 13.0,
									"id" : "obj-14",
									"maxclass" : "newobj",
									"numinlets" : 2,
									"numoutlets" : 1,
									"outlettype" : [ "" ],
									"patching_rect" : [ 17.0, 228.0, 187.0, 23.0 ],
									"text" : "ears.pan~ 2 @rangetype 2"
								}

							}
, 							{
								"box" : 								{
									"border" : 0,
									"filename" : "helpname.js",
									"id" : "obj-2",
									"ignoreclick" : 1,
									"jsarguments" : [ "ears.pan~" ],
									"maxclass" : "jsui",
									"numinlets" : 1,
									"numoutlets" : 1,
									"outlettype" : [ "" ],
									"parameter_enable" : 0,
									"patching_rect" : [ 10.0, 10.0, 209.167999267578125, 57.599853515625 ]
								}

							}
 ],
						"lines" : [ 							{
								"patchline" : 								{
									"destination" : [ "obj-28", 1 ],
									"source" : [ "obj-10", 0 ]
								}

							}
, 							{
								"patchline" : 								{
									"destination" : [ "obj-12", 0 ],
									"midpoints" : [ 26.5, 337.0 ],
									"order" : 0,
									"source" : [ "obj-11", 0 ]
								}

							}
, 							{
								"patchline" : 								{
									"destination" : [ "obj-9", 0 ],
									"order" : 1,
									"source" : [ "obj-11", 0 ]
								}

							}
, 							{
								"patchline" : 								{
									"destination" : [ "obj-11", 0 ],
									"source" : [ "obj-14", 0 ]
								}

							}
, 							{
								"patchline" : 								{
									"destination" : [ "obj-14", 0 ],
									"source" : [ "obj-15", 0 ]
								}

							}
, 							{
								"patchline" : 								{
									"destination" : [ "obj-20", 0 ],
									"midpoints" : [ 414.5, 285.0 ],
									"order" : 6,
									"source" : [ "obj-21", 0 ]
								}

							}
, 							{
								"patchline" : 								{
									"destination" : [ "obj-22", 0 ],
									"order" : 7,
									"source" : [ "obj-21", 0 ]
								}

							}
, 							{
								"patchline" : 								{
									"destination" : [ "obj-33", 0 ],
									"order" : 5,
									"source" : [ "obj-21", 0 ]
								}

							}
, 							{
								"patchline" : 								{
									"destination" : [ "obj-35", 0 ],
									"order" : 3,
									"source" : [ "obj-21", 0 ]
								}

							}
, 							{
								"patchline" : 								{
									"destination" : [ "obj-36", 0 ],
									"order" : 4,
									"source" : [ "obj-21", 0 ]
								}

							}
, 							{
								"patchline" : 								{
									"destination" : [ "obj-37", 0 ],
									"order" : 0,
									"source" : [ "obj-21", 0 ]
								}

							}
, 							{
								"patchline" : 								{
									"destination" : [ "obj-38", 0 ],
									"order" : 1,
									"source" : [ "obj-21", 0 ]
								}

							}
, 							{
								"patchline" : 								{
									"destination" : [ "obj-39", 0 ],
									"order" : 2,
									"source" : [ "obj-21", 0 ]
								}

							}
, 							{
								"patchline" : 								{
									"destination" : [ "obj-14", 1 ],
									"source" : [ "obj-23", 0 ]
								}

							}
, 							{
								"patchline" : 								{
									"destination" : [ "obj-10", 0 ],
									"order" : 0,
									"source" : [ "obj-26", 0 ]
								}

							}
, 							{
								"patchline" : 								{
									"destination" : [ "obj-28", 0 ],
									"order" : 1,
									"source" : [ "obj-26", 0 ]
								}

							}
, 							{
								"patchline" : 								{
									"destination" : [ "obj-21", 0 ],
									"source" : [ "obj-28", 0 ]
								}

							}
, 							{
								"patchline" : 								{
									"destination" : [ "obj-14", 0 ],
									"source" : [ "obj-3", 0 ]
								}

							}
, 							{
								"patchline" : 								{
									"destination" : [ "obj-14", 0 ],
									"source" : [ "obj-4", 0 ]
								}

							}
, 							{
								"patchline" : 								{
									"destination" : [ "obj-28", 0 ],
									"source" : [ "obj-7", 0 ]
								}

							}
 ]
					}
,
					"patching_rect" : [ 30.0, 118.0, 51.0, 22.0 ],
					"saved_object_attributes" : 					{
						"description" : "",
						"digest" : "",
						"fontsize" : 13.0,
						"globalpatchername" : "",
						"tags" : ""
					}
,
					"text" : "p range",
					"varname" : "basic_tab[1]"
				}

			}
, 			{
				"box" : 				{
					"fontname" : "Arial",
					"fontsize" : 12.0,
					"id" : "obj-1",
					"maxclass" : "newobj",
					"numinlets" : 1,
					"numoutlets" : 1,
					"outlettype" : [ "" ],
					"patching_rect" : [ 299.0, 205.0, 146.0, 22.0 ],
					"saved_object_attributes" : 					{
						"filename" : "helpstarter.js",
						"parameter_enable" : 0
					}
,
					"text" : "js helpstarter.js ears.pan~"
				}

			}
, 			{
				"box" : 				{
					"fontname" : "Arial",
					"fontsize" : 12.0,
					"id" : "obj-2",
					"maxclass" : "newobj",
					"numinlets" : 0,
					"numoutlets" : 0,
					"patcher" : 					{
						"fileversion" : 1,
						"appversion" : 						{
							"major" : 8,
							"minor" : 0,
							"revision" : 5,
							"architecture" : "x64",
							"modernui" : 1
						}
,
						"classnamespace" : "box",
						"rect" : [ 100.0, 126.0, 749.0, 456.0 ],
						"bglocked" : 0,
						"openinpresentation" : 0,
						"default_fontsize" : 13.0,
						"default_fontface" : 0,
						"default_fontname" : "Arial",
						"gridonopen" : 1,
						"gridsize" : [ 5.0, 5.0 ],
						"gridsnaponopen" : 1,
						"objectsnaponopen" : 1,
						"statusbarvisible" : 2,
						"toolbarvisible" : 1,
						"lefttoolbarpinned" : 0,
						"toptoolbarpinned" : 0,
						"righttoolbarpinned" : 0,
						"bottomtoolbarpinned" : 0,
						"toolbars_unpinned_last_save" : 0,
						"tallnewobj" : 0,
						"boxanimatetime" : 200,
						"enablehscroll" : 1,
						"enablevscroll" : 1,
						"devicewidth" : 0.0,
						"description" : "",
						"digest" : "",
						"tags" : "",
						"style" : "",
						"subpatcher_template" : "",
						"showontab" : 1,
						"boxes" : [ 							{
								"box" : 								{
									"fontname" : "Arial",
									"fontsize" : 13.0,
									"id" : "obj-15",
									"linecount" : 3,
									"maxclass" : "comment",
									"numinlets" : 1,
									"numoutlets" : 0,
									"patching_rect" : [ 625.0, 363.5, 81.0, 50.0 ],
									"text" : "Output buffer has 4 channels",
									"textcolor" : [ 0.501961, 0.501961, 0.501961, 1.0 ]
								}

							}
, 							{
								"box" : 								{
									"fontname" : "Arial",
									"fontsize" : 13.0,
									"id" : "obj-50",
									"linecount" : 4,
									"maxclass" : "comment",
									"numinlets" : 1,
									"numoutlets" : 0,
									"patching_rect" : [ 481.0, 279.0, 227.0, 65.0 ],
									"text" : "When using dynamic wrapped list of \n[[X pan] [X pan]...] is expected here, where X goes from 0 to 1, unless the \"envtimeunit\" is set ",
									"textcolor" : [ 0.501961, 0.501961, 0.501961, 1.0 ]
								}

							}
, 							{
								"box" : 								{
									"hidden" : 1,
									"id" : "obj-48",
									"maxclass" : "newobj",
									"numinlets" : 1,
									"numoutlets" : 1,
									"outlettype" : [ "" ],
									"patching_rect" : [ 276.0, 184.0, 109.0, 23.0 ],
									"text" : "loadmess set 0.3"
								}

							}
, 							{
								"box" : 								{
									"bubble" : 1,
									"fontname" : "Arial",
									"fontsize" : 13.0,
									"id" : "obj-47",
									"maxclass" : "comment",
									"numinlets" : 1,
									"numoutlets" : 0,
									"patching_rect" : [ 148.0, 193.0, 123.0, 25.0 ],
									"text" : "Change panning"
								}

							}
, 							{
								"box" : 								{
									"format" : 6,
									"id" : "obj-46",
									"maxclass" : "flonum",
									"numinlets" : 1,
									"numoutlets" : 2,
									"outlettype" : [ "", "bang" ],
									"parameter_enable" : 0,
									"patching_rect" : [ 97.0, 193.0, 50.0, 23.0 ]
								}

							}
, 							{
								"box" : 								{
									"hidden" : 1,
									"id" : "obj-43",
									"maxclass" : "newobj",
									"numinlets" : 1,
									"numoutlets" : 1,
									"outlettype" : [ "bang" ],
									"patching_rect" : [ 618.0, 96.0, 64.0, 23.0 ],
									"text" : "loadbang"
								}

							}
, 							{
								"box" : 								{
									"id" : "obj-41",
									"maxclass" : "newobj",
									"numinlets" : 1,
									"numoutlets" : 1,
									"outlettype" : [ "" ],
									"patching_rect" : [ 558.0, 252.0, 81.0, 23.0 ],
									"saved_object_attributes" : 									{
										"versionnumber" : 80001
									}
,
									"text" : "bach.wrap 1"
								}

							}
, 							{
								"box" : 								{
									"id" : "obj-40",
									"maxclass" : "newobj",
									"numinlets" : 1,
									"numoutlets" : 1,
									"outlettype" : [ "" ],
									"patching_rect" : [ 558.0, 226.0, 86.0, 23.0 ],
									"saved_object_attributes" : 									{
										"versionnumber" : 80001
									}
,
									"text" : "bach.group 2"
								}

							}
, 							{
								"box" : 								{
									"buffername" : "u757007412",
									"chanoffset" : 4,
									"id" : "obj-39",
									"labels" : 0,
									"maxclass" : "waveform~",
									"numinlets" : 5,
									"numoutlets" : 6,
									"outlettype" : [ "float", "float", "float", "float", "list", "" ],
									"patching_rect" : [ 400.0, 413.5, 216.0, 14.0 ],
									"ruler" : 0
								}

							}
, 							{
								"box" : 								{
									"buffername" : "u757007412",
									"chanoffset" : 3,
									"id" : "obj-33",
									"labels" : 0,
									"maxclass" : "waveform~",
									"numinlets" : 5,
									"numoutlets" : 6,
									"outlettype" : [ "float", "float", "float", "float", "list", "" ],
									"patching_rect" : [ 400.0, 397.5, 216.0, 14.0 ],
									"ruler" : 0
								}

							}
, 							{
								"box" : 								{
									"buffername" : "u757007412",
									"chanoffset" : 2,
									"id" : "obj-20",
									"labels" : 0,
									"maxclass" : "waveform~",
									"numinlets" : 5,
									"numoutlets" : 6,
									"outlettype" : [ "float", "float", "float", "float", "list", "" ],
									"patching_rect" : [ 400.0, 381.5, 216.0, 14.0 ],
									"ruler" : 0
								}

							}
, 							{
								"box" : 								{
									"buffername" : "u757007412",
									"id" : "obj-22",
									"maxclass" : "waveform~",
									"numinlets" : 5,
									"numoutlets" : 6,
									"outlettype" : [ "float", "float", "float", "float", "list", "" ],
									"patching_rect" : [ 400.0, 356.0, 216.0, 24.0 ]
								}

							}
, 							{
								"box" : 								{
									"id" : "obj-38",
									"maxclass" : "message",
									"numinlets" : 2,
									"numoutlets" : 1,
									"outlettype" : [ "" ],
									"patching_rect" : [ 537.0, 111.0, 59.0, 23.0 ],
									"text" : "listdump"
								}

							}
, 							{
								"box" : 								{
									"addpoints" : [ 0.0, 0.0, 0, 0.125, 0.651163, 0, 0.269737, 0.465116, 0, 0.453947, 0.27907, 0, 0.631578947368421, 0.534883720930233, 0, 1.0, 1.0, 0 ],
									"domain" : 1.0,
									"id" : "obj-36",
									"maxclass" : "function",
									"numinlets" : 1,
									"numoutlets" : 4,
									"outlettype" : [ "float", "", "", "bang" ],
									"parameter_enable" : 0,
									"patching_rect" : [ 537.0, 143.0, 164.0, 68.0 ]
								}

							}
, 							{
								"box" : 								{
									"fontname" : "Arial",
									"fontsize" : 13.0,
									"id" : "obj-19",
									"maxclass" : "comment",
									"numinlets" : 1,
									"numoutlets" : 0,
									"patching_rect" : [ 400.0, 129.0, 128.0, 21.0 ],
									"text" : "Dynamic usage",
									"textcolor" : [ 0.501961, 0.501961, 0.501961, 1.0 ]
								}

							}
, 							{
								"box" : 								{
									"id" : "obj-21",
									"maxclass" : "message",
									"numinlets" : 2,
									"numoutlets" : 1,
									"outlettype" : [ "" ],
									"patching_rect" : [ 400.0, 313.0, 50.0, 23.0 ],
									"text" : "set $1"
								}

							}
, 							{
								"box" : 								{
									"id" : "obj-26",
									"maxclass" : "message",
									"numinlets" : 2,
									"numoutlets" : 1,
									"outlettype" : [ "" ],
									"patching_rect" : [ 400.0, 157.0, 112.0, 23.0 ],
									"text" : "earsBufCherokee"
								}

							}
, 							{
								"box" : 								{
									"fontname" : "Arial",
									"fontsize" : 13.0,
									"id" : "obj-28",
									"maxclass" : "newobj",
									"numinlets" : 2,
									"numoutlets" : 1,
									"outlettype" : [ "" ],
									"patching_rect" : [ 400.0, 279.0, 78.0, 23.0 ],
									"text" : "ears.pan~ 4"
								}

							}
, 							{
								"box" : 								{
									"fontname" : "Arial",
									"fontsize" : 13.0,
									"id" : "obj-17",
									"linecount" : 4,
									"maxclass" : "comment",
									"numinlets" : 1,
									"numoutlets" : 0,
									"patching_rect" : [ 235.0, 313.0, 128.0, 65.0 ],
									"text" : "Output buffer has 2 channels and the original sound is panned at 0.3",
									"textcolor" : [ 0.501961, 0.501961, 0.501961, 1.0 ]
								}

							}
, 							{
								"box" : 								{
									"fontname" : "Arial",
									"fontsize" : 13.0,
									"id" : "obj-16",
									"maxclass" : "comment",
									"numinlets" : 1,
									"numoutlets" : 0,
									"patching_rect" : [ 17.0, 125.0, 128.0, 21.0 ],
									"text" : "Simple, static usage:",
									"textcolor" : [ 0.501961, 0.501961, 0.501961, 1.0 ]
								}

							}
, 							{
								"box" : 								{
									"buffername" : "u401007420",
									"chanoffset" : 2,
									"id" : "obj-12",
									"labels" : 0,
									"maxclass" : "waveform~",
									"numinlets" : 5,
									"numoutlets" : 6,
									"outlettype" : [ "float", "float", "float", "float", "list", "" ],
									"patching_rect" : [ 17.0, 344.639251999999999, 216.0, 22.860759999999999 ],
									"ruler" : 0
								}

							}
, 							{
								"box" : 								{
									"id" : "obj-11",
									"maxclass" : "message",
									"numinlets" : 2,
									"numoutlets" : 1,
									"outlettype" : [ "" ],
									"patching_rect" : [ 17.0, 279.0, 50.0, 23.0 ],
									"text" : "set $1"
								}

							}
, 							{
								"box" : 								{
									"buffername" : "u401007420",
									"id" : "obj-9",
									"maxclass" : "waveform~",
									"numinlets" : 5,
									"numoutlets" : 6,
									"outlettype" : [ "float", "float", "float", "float", "list", "" ],
									"patching_rect" : [ 17.0, 313.0, 216.0, 26.556961000000001 ]
								}

							}
, 							{
								"box" : 								{
									"bubble" : 1,
									"fontname" : "Arial",
									"fontsize" : 13.0,
									"id" : "obj-8",
									"linecount" : 3,
									"maxclass" : "comment",
									"numinlets" : 1,
									"numoutlets" : 0,
									"patching_rect" : [ 119.0, 227.5, 201.0, 54.0 ],
									"text" : "Stereophonic panning (2 channels), with pan at 0.3 (between 0 and 1 by default)"
								}

							}
, 							{
								"box" : 								{
									"buffername" : "earsBufCherokee",
									"id" : "obj-23",
									"maxclass" : "waveform~",
									"numinlets" : 5,
									"numoutlets" : 6,
									"outlettype" : [ "float", "float", "float", "float", "list", "" ],
									"patching_rect" : [ 431.0, 10.0, 182.5, 39.0 ]
								}

							}
, 							{
								"box" : 								{
									"id" : "obj-7",
									"maxclass" : "newobj",
									"numinlets" : 1,
									"numoutlets" : 2,
									"outlettype" : [ "float", "bang" ],
									"patching_rect" : [ 431.0, 55.5, 213.0, 23.0 ],
									"text" : "buffer~ earsBufCherokee cherokee"
								}

							}
, 							{
								"box" : 								{
									"fontface" : 0,
									"fontname" : "Arial",
									"fontsize" : 13.0,
									"hyperlinkcolor" : [ 0.741176, 0.356863, 0.047059, 1.0 ],
									"id" : "obj-29",
									"linecount" : 2,
									"linkstart" : [ "h" ],
									"maxclass" : "bach.hypercomment",
									"numinlets" : 1,
									"numoutlets" : 1,
									"outlettype" : [ "" ],
									"patching_rect" : [ 17.0, 395.0, 372.0, 36.0 ],
									"text" : "Click here to learn about the common features of ears modules, including in-place operations and dynamic allocation."
								}

							}
, 							{
								"box" : 								{
									"hidden" : 1,
									"id" : "obj-27",
									"maxclass" : "message",
									"numinlets" : 2,
									"numoutlets" : 1,
									"outlettype" : [ "" ],
									"patching_rect" : [ 28.0, 429.0, 152.0, 23.0 ],
									"text" : "load ears.help.commons"
								}

							}
, 							{
								"box" : 								{
									"hidden" : 1,
									"id" : "obj-6",
									"maxclass" : "newobj",
									"numinlets" : 1,
									"numoutlets" : 1,
									"outlettype" : [ "" ],
									"patching_rect" : [ 28.0, 464.0, 57.0, 23.0 ],
									"text" : "pcontrol"
								}

							}
, 							{
								"box" : 								{
									"bubble" : 1,
									"fontname" : "Arial",
									"fontsize" : 13.0,
									"id" : "obj-5",
									"maxclass" : "comment",
									"numinlets" : 1,
									"numoutlets" : 0,
									"patching_rect" : [ 134.0, 153.0, 141.0, 25.0 ],
									"text" : "Source buffer name"
								}

							}
, 							{
								"box" : 								{
									"id" : "obj-4",
									"maxclass" : "message",
									"numinlets" : 2,
									"numoutlets" : 1,
									"outlettype" : [ "" ],
									"patching_rect" : [ 17.0, 153.0, 112.0, 23.0 ],
									"text" : "earsBufCherokee"
								}

							}
, 							{
								"box" : 								{
									"fontname" : "Arial",
									"fontsize" : 13.0,
									"id" : "obj-14",
									"maxclass" : "newobj",
									"numinlets" : 2,
									"numoutlets" : 1,
									"outlettype" : [ "" ],
									"patching_rect" : [ 17.0, 243.0, 99.0, 23.0 ],
									"text" : "ears.pan~ 2 0.3"
								}

							}
, 							{
								"box" : 								{
									"border" : 0,
									"filename" : "helpdetails.js",
									"id" : "obj-2",
									"ignoreclick" : 1,
									"jsarguments" : [ "ears.pan~", 90 ],
									"maxclass" : "jsui",
									"numinlets" : 1,
									"numoutlets" : 1,
									"outlettype" : [ "" ],
									"parameter_enable" : 0,
									"patching_rect" : [ 10.0, 10.0, 485.25, 100.0 ]
								}

							}
 ],
						"lines" : [ 							{
								"patchline" : 								{
									"destination" : [ "obj-12", 0 ],
									"midpoints" : [ 26.5, 352.0 ],
									"order" : 0,
									"source" : [ "obj-11", 0 ]
								}

							}
, 							{
								"patchline" : 								{
									"destination" : [ "obj-9", 0 ],
									"order" : 1,
									"source" : [ "obj-11", 0 ]
								}

							}
, 							{
								"patchline" : 								{
									"destination" : [ "obj-11", 0 ],
									"source" : [ "obj-14", 0 ]
								}

							}
, 							{
								"patchline" : 								{
									"destination" : [ "obj-20", 0 ],
									"order" : 2,
									"source" : [ "obj-21", 0 ]
								}

							}
, 							{
								"patchline" : 								{
									"destination" : [ "obj-22", 0 ],
									"order" : 3,
									"source" : [ "obj-21", 0 ]
								}

							}
, 							{
								"patchline" : 								{
									"destination" : [ "obj-33", 0 ],
									"order" : 1,
									"source" : [ "obj-21", 0 ]
								}

							}
, 							{
								"patchline" : 								{
									"destination" : [ "obj-39", 0 ],
									"order" : 0,
									"source" : [ "obj-21", 0 ]
								}

							}
, 							{
								"patchline" : 								{
									"destination" : [ "obj-28", 0 ],
									"source" : [ "obj-26", 0 ]
								}

							}
, 							{
								"patchline" : 								{
									"destination" : [ "obj-6", 0 ],
									"hidden" : 1,
									"source" : [ "obj-27", 0 ]
								}

							}
, 							{
								"patchline" : 								{
									"destination" : [ "obj-21", 0 ],
									"source" : [ "obj-28", 0 ]
								}

							}
, 							{
								"patchline" : 								{
									"destination" : [ "obj-27", 0 ],
									"hidden" : 1,
									"source" : [ "obj-29", 0 ]
								}

							}
, 							{
								"patchline" : 								{
									"destination" : [ "obj-38", 0 ],
									"midpoints" : [ 691.5, 221.0, 715.0, 221.0, 715.0, 100.0, 546.5, 100.0 ],
									"source" : [ "obj-36", 3 ]
								}

							}
, 							{
								"patchline" : 								{
									"destination" : [ "obj-40", 0 ],
									"source" : [ "obj-36", 2 ]
								}

							}
, 							{
								"patchline" : 								{
									"destination" : [ "obj-36", 0 ],
									"source" : [ "obj-38", 0 ]
								}

							}
, 							{
								"patchline" : 								{
									"destination" : [ "obj-14", 0 ],
									"source" : [ "obj-4", 0 ]
								}

							}
, 							{
								"patchline" : 								{
									"destination" : [ "obj-41", 0 ],
									"source" : [ "obj-40", 0 ]
								}

							}
, 							{
								"patchline" : 								{
									"destination" : [ "obj-28", 1 ],
									"source" : [ "obj-41", 0 ]
								}

							}
, 							{
								"patchline" : 								{
									"destination" : [ "obj-38", 0 ],
									"hidden" : 1,
									"source" : [ "obj-43", 0 ]
								}

							}
, 							{
								"patchline" : 								{
									"destination" : [ "obj-14", 1 ],
									"source" : [ "obj-46", 0 ]
								}

							}
, 							{
								"patchline" : 								{
									"destination" : [ "obj-46", 0 ],
									"hidden" : 1,
									"source" : [ "obj-48", 0 ]
								}

							}
 ]
					}
,
					"patching_rect" : [ 10.0, 85.0, 49.0, 22.0 ],
					"saved_object_attributes" : 					{
						"description" : "",
						"digest" : "",
						"fontsize" : 13.0,
						"globalpatchername" : "",
						"tags" : ""
					}
,
					"text" : "p basic",
					"varname" : "basic_tab"
				}

			}
, 			{
				"box" : 				{
					"border" : 0,
					"filename" : "helpname.js",
					"id" : "obj-4",
					"ignoreclick" : 1,
					"jsarguments" : [ "ears.pan~" ],
					"maxclass" : "jsui",
					"numinlets" : 1,
					"numoutlets" : 1,
					"outlettype" : [ "" ],
					"parameter_enable" : 0,
					"patching_rect" : [ 10.0, 10.0, 209.167999267578125, 57.599853515625 ]
				}

			}
, 			{
				"box" : 				{
					"fontname" : "Arial",
					"fontsize" : 12.0,
					"id" : "obj-8",
					"maxclass" : "newobj",
					"numinlets" : 0,
					"numoutlets" : 0,
					"patcher" : 					{
						"fileversion" : 1,
						"appversion" : 						{
							"major" : 8,
							"minor" : 0,
							"revision" : 5,
							"architecture" : "x64",
							"modernui" : 1
						}
,
						"classnamespace" : "box",
						"rect" : [ 0.0, 26.0, 749.0, 456.0 ],
						"bglocked" : 0,
						"openinpresentation" : 0,
						"default_fontsize" : 13.0,
						"default_fontface" : 0,
						"default_fontname" : "Arial",
						"gridonopen" : 1,
						"gridsize" : [ 5.0, 5.0 ],
						"gridsnaponopen" : 1,
						"objectsnaponopen" : 1,
						"statusbarvisible" : 2,
						"toolbarvisible" : 1,
						"lefttoolbarpinned" : 0,
						"toptoolbarpinned" : 0,
						"righttoolbarpinned" : 0,
						"bottomtoolbarpinned" : 0,
						"toolbars_unpinned_last_save" : 0,
						"tallnewobj" : 0,
						"boxanimatetime" : 200,
						"enablehscroll" : 1,
						"enablevscroll" : 1,
						"devicewidth" : 0.0,
						"description" : "",
						"digest" : "",
						"tags" : "",
						"style" : "",
						"subpatcher_template" : "",
						"showontab" : 1,
						"boxes" : [  ],
						"lines" : [  ]
					}
,
					"patching_rect" : [ 205.0, 205.0, 50.0, 22.0 ],
					"saved_object_attributes" : 					{
						"description" : "",
						"digest" : "",
						"fontsize" : 13.0,
						"globalpatchername" : "",
						"tags" : ""
					}
,
					"text" : "p ?",
					"varname" : "q_tab"
				}

			}
 ],
		"lines" : [  ],
		"dependency_cache" : [ 			{
				"name" : "helpname.js",
				"bootpath" : "C74:/help/resources",
				"type" : "TEXT",
				"implicit" : 1
			}
, 			{
				"name" : "helpdetails.js",
				"bootpath" : "C74:/help/resources",
				"type" : "TEXT",
				"implicit" : 1
			}
, 			{
				"name" : "helpstarter.js",
				"bootpath" : "C74:/help/resources",
				"type" : "TEXT",
				"implicit" : 1
			}
, 			{
				"name" : "helpargs.js",
				"bootpath" : "C74:/help/resources",
				"type" : "TEXT",
				"implicit" : 1
			}
, 			{
				"name" : "ears.pan~.mxo",
				"type" : "iLaX"
			}
, 			{
				"name" : "bach.hypercomment.mxo",
				"type" : "iLaX"
			}
, 			{
				"name" : "bach.group.mxo",
				"type" : "iLaX"
			}
, 			{
				"name" : "bach.wrap.mxo",
				"type" : "iLaX"
			}
 ],
		"autosave" : 0
	}

}
